<svg width="31" height="31" viewBox="0 0 31 31" fill="none" xmlns="http://www.w3.org/2000/svg">
<path d="M8.03491 2.66638L4.28491 7.66638V25.1664C4.28491 25.8294 4.5483 26.4653 5.01715 26.9341C5.48599 27.403 6.12187 27.6664 6.78491 27.6664H24.2849C24.948 27.6664 25.5838 27.403 26.0527 26.9341C26.5215 26.4653 26.7849 25.8294 26.7849 25.1664V7.66638L23.0349 2.66638H8.03491Z" stroke="white" stroke-width="2" stroke-linecap="round" stroke-linejoin="round"/>
<path d="M4.28491 7.66638H26.7849" stroke="white" stroke-width="2" stroke-linecap="round" stroke-linejoin="round"/>
<path d="M20.5349 12.6664C20.5349 13.9925 20.0081 15.2642 19.0704 16.2019C18.1328 17.1396 16.861 17.6664 15.5349 17.6664C14.2088 17.6664 12.9371 17.1396 11.9994 16.2019C11.0617 15.2642 10.5349 13.9925 10.5349 12.6664" stroke="white" stroke-width="2" stroke-linecap="round" stroke-linejoin="round"/>
</svg>
